<svg width="12" height="18" viewBox="0 0 12 18" fill="none" xmlns="http://www.w3.org/2000/svg">
<path d="M6 0C2.69119 0 0 2.66154 0 5.9339C0 7.21781 0.784245 8.87422 1.2931 9.80885L5.63793 17.7889C5.67372 17.8529 5.72618 17.9062 5.78986 17.9433C5.85353 17.9804 5.92609 18 6 18C6.07391 18 6.14647 17.9804 6.21014 17.9433C6.27382 17.9062 6.32628 17.8529 6.36207 17.7889L10.7069 9.80885C11.2157 8.87424 12 7.21782 12 5.9339C12 2.66154 9.30881 0 6 0ZM6 0.818469C8.86155 0.818469 11.1724 3.10387 11.1724 5.9339C11.1724 6.84933 10.4548 8.55174 9.98276 9.41878L6 16.7339L2.01724 9.41878C1.54516 8.55172 0.827586 6.84933 0.827586 5.9339C0.827586 3.10387 3.13845 0.818469 6 0.818469ZM6 2.86464C4.29091 2.86464 2.89655 4.24366 2.89655 5.9339C2.89655 7.62415 4.29092 9.00315 6 9.00315C7.70909 9.00315 9.10345 7.62415 9.10345 5.9339C9.10345 4.24366 7.70909 2.86464 6 2.86464ZM6 3.68311C7.26182 3.68311 8.27586 4.686 8.27586 5.9339C8.27586 7.18182 7.26183 8.18468 6 8.18468C4.73818 8.18468 3.72414 7.18182 3.72414 5.9339C3.72414 4.686 4.73818 3.68311 6 3.68311Z" fill="#FEFEFE"/>
</svg>
