<svg width="822" height="1167" viewBox="0 0 822 1167" fill="none" xmlns="http://www.w3.org/2000/svg">
<g clip-path="url(#clip0)">
<mask id="mask0" mask-type="alpha" maskUnits="userSpaceOnUse" x="285" y="-270" width="1075" height="1319">
<path d="M847.688 -262.527L307.211 228.609C303.277 232.184 302.986 238.271 306.561 242.205L797.697 782.682C801.272 786.616 807.359 786.907 811.293 783.332L1351.77 292.196C1355.7 288.621 1355.99 282.534 1352.42 278.6L861.284 -261.877C857.709 -265.811 851.622 -266.102 847.688 -262.527Z" stroke="#C7E5DF" stroke-width="0.75"/>
<path d="M841.566 -134.514L301.089 356.622C297.155 360.197 296.864 366.284 300.439 370.218L791.575 910.695C795.15 914.629 801.237 914.92 805.171 911.345L1345.65 420.209C1349.58 416.634 1349.87 410.547 1346.3 406.613L855.162 -133.864C851.587 -137.798 845.5 -138.089 841.566 -134.514Z" stroke="#C7E5DF" stroke-width="0.75"/>
<path d="M833.6 -3.91997L293.123 487.216C289.189 490.791 288.898 496.878 292.473 500.812L783.609 1041.29C787.184 1045.22 793.271 1045.51 797.205 1041.94L1337.68 550.803C1341.62 547.228 1341.91 541.141 1338.33 537.207L847.196 -3.26968C843.621 -7.20376 837.534 -7.4949 833.6 -3.91997Z" stroke="#C7E5DF" stroke-width="0.75"/>
</mask>
<g mask="url(#mask0)">
<path d="M841 2H286V794H841V2Z" fill="#C4C4C4"/>
</g>
</g>
<defs>
<clipPath id="clip0">
<rect width="822" height="1167" fill="white"/>
</clipPath>
</defs>
</svg>
