<svg width="181" height="22" viewBox="0 0 181 22" fill="none" xmlns="http://www.w3.org/2000/svg">
<path d="M46.8759 2.71605C44.9791 1.08642 42.8115 0 40.1019 0C37.3923 0 34.9537 1.08642 33.057 2.71605C31.1603 4.61728 30.3474 6.79012 30.3474 9.23457C30.3474 11.9506 31.1603 14.1235 33.057 15.7531C34.9537 17.6543 37.3923 18.4691 40.1019 18.4691C42.8115 18.4691 44.9791 17.6543 46.8759 15.7531C48.7726 14.1235 49.8564 11.9506 49.8564 9.23457C49.8564 6.79012 48.7726 4.61728 46.8759 2.71605ZM45.5211 15.2099C44.1663 16.8395 42.5405 17.6543 40.1019 17.6543C37.6633 17.6543 35.7666 16.8395 34.6827 15.2099C33.328 13.3086 32.786 11.4074 32.786 9.23457C32.786 7.06173 33.328 5.16049 34.6827 3.53086C35.7666 1.90123 37.6633 0.814815 40.1019 0.814815C42.5405 0.814815 44.1663 1.90123 45.5211 3.53086C46.6049 5.16049 47.1468 7.06173 47.1468 9.23457C47.1468 11.4074 46.6049 13.3086 45.5211 15.2099Z" fill="#FEFEFE"/>
<path d="M67.4686 2.71605C65.5719 1.08642 63.1333 0 60.4237 0C57.9851 0 55.5465 1.08642 53.6498 2.71605C51.7531 4.61728 50.9402 6.79012 50.9402 9.23457C50.9402 11.9506 51.7531 14.1235 53.6498 15.7531C55.5465 17.6543 57.9851 18.4691 60.4237 18.4691C63.1333 18.4691 65.5719 17.6543 67.4686 15.7531C69.3653 14.1235 70.1782 11.9506 70.1782 9.23457C70.1782 6.79012 69.3653 4.61728 67.4686 2.71605ZM65.8429 15.2099C64.759 16.8395 62.8623 17.6543 60.4237 17.6543C58.2561 17.6543 56.3593 16.8395 55.0046 15.2099C53.9207 13.3086 53.3788 11.4074 53.3788 9.23457C53.3788 7.06173 53.9207 5.16049 55.0046 3.53086C56.3593 1.90123 58.2561 0.814815 60.4237 0.814815C62.8623 0.814815 64.759 1.90123 65.8429 3.53086C67.1977 5.16049 67.7396 7.06173 67.7396 9.23457C67.7396 11.4074 67.1977 13.3086 65.8429 15.2099Z" fill="#FEFEFE"/>
<path d="M11.3802 8.69142H11.1093L11.3802 8.41982C11.9222 7.87661 12.4641 7.3334 13.006 6.79019C13.2769 6.24698 13.5479 5.70377 13.5479 4.88895C13.5479 3.53093 13.006 2.71611 12.1931 1.9013C11.1093 1.08648 9.75449 0.543274 7.85778 0.543274H0.270958C0.270958 0.543274 0 0.543274 0 0.814879H0.270958C1.35479 0.814879 2.16766 1.08648 2.43862 1.62969C2.70958 1.9013 2.98054 2.98772 2.98054 4.61735V14.1235C2.98054 15.7531 2.70958 16.568 2.43862 17.1112C2.16766 17.3828 1.35479 17.6544 0.270958 17.6544L0 17.926L0.270958 18.1976H8.67066C10.8383 18.1976 12.1931 17.6544 13.2769 16.8396C14.3608 15.7531 14.9027 14.6667 14.9027 13.3087C14.9027 12.2223 14.6317 11.4075 14.0898 10.3211C13.2769 9.50624 12.4641 8.96303 11.3802 8.69142ZM4.87725 1.35809H7.85778C8.94162 1.35809 9.75449 1.62969 10.2964 2.44451C10.8383 2.98772 11.1093 3.80253 11.1093 4.88895C11.1093 5.97537 10.8383 6.79019 10.2964 7.3334C9.75449 8.14821 8.94162 8.41982 7.85778 8.41982H4.87725V1.35809ZM11.6512 16.0248C11.1093 16.8396 10.0254 17.3828 8.67066 17.3828H7.85778C6.77395 17.3828 5.96108 17.1112 5.41916 16.568C5.1482 16.2964 5.1482 15.2099 5.1482 13.5803V9.23463H8.67066C10.0254 9.23463 11.1093 9.50624 11.6512 10.3211C12.4641 11.1359 12.735 11.9507 12.735 13.3087C12.735 14.3951 12.4641 15.4815 11.6512 16.0248Z" fill="#FEFEFE"/>
<path d="M30.3472 14.3951C30.0763 14.3951 30.0763 14.3951 30.0763 14.6667V14.9383C29.8053 15.7531 29.5344 16.568 28.9924 16.8396C28.7215 17.1112 27.9086 17.3828 26.5538 17.3828H23.0314C21.6766 17.3828 20.8637 17.1112 20.5927 16.568C20.0508 16.2964 20.0508 15.2099 20.0508 13.5803V4.61735C20.0508 2.98772 20.0508 1.9013 20.5927 1.62969C20.8637 1.08648 21.4056 0.814879 22.7604 0.814879C22.7604 0.543274 22.7604 0.543274 22.7604 0.543274H15.1736C15.1736 0.543274 15.1736 0.543274 15.1736 0.814879C16.2574 0.814879 17.0703 1.08648 17.3412 1.62969C17.6122 1.9013 17.8832 2.98772 17.8832 4.61735V14.1235C17.8832 15.7531 17.6122 16.568 17.3412 17.1112C17.0703 17.3828 16.2574 17.6544 15.1736 17.6544V17.926V18.1976H30.0763C30.3472 18.1976 30.3472 17.926 30.3472 17.926L30.6182 14.6667C30.6182 14.3951 30.3472 14.3951 30.3472 14.3951Z" fill="#FEFEFE"/>
<path d="M92.1256 0.271606H88.0613H87.7903L81.5583 14.9383L75.3262 0.271606H75.0553H70.449C70.449 0.271606 70.449 0.271606 70.449 0.543211C71.8038 0.814816 72.3457 0.814816 72.6166 1.35803C73.1586 1.62963 73.1586 2.71605 73.1586 4.34568V13.8519C73.1586 15.4815 73.1586 16.2963 72.6166 16.8395C72.3457 17.1111 71.5328 17.3827 70.449 17.3827V17.6543V17.9259H76.681L76.952 17.6543C76.952 17.6543 76.952 17.3827 76.681 17.3827C75.5972 17.3827 74.7843 17.1111 74.5133 16.8395C74.2424 16.2963 73.9714 15.4815 73.9714 13.8519V2.71605L80.7454 18.1975H81.0163L87.5193 3.53087V13.8519C87.5193 15.4815 87.2484 16.2963 86.9774 16.8395C86.4355 17.1111 85.8936 17.3827 84.8098 17.3827L84.5388 17.6543L84.8098 17.9259H92.1256L92.3966 17.6543C92.3966 17.6543 92.3966 17.3827 92.1256 17.3827C91.0418 17.3827 90.2289 17.1111 89.958 16.8395C89.687 16.2963 89.416 15.4815 89.416 13.8519V4.34568C89.416 2.71605 89.687 1.62963 89.958 1.35803C90.2289 0.814816 91.0418 0.543211 92.1256 0.543211H92.3966C92.3966 0.271606 92.1256 0.271606 92.1256 0.271606Z" fill="#FEFEFE"/>
<path d="M178.29 2.71605C176.665 1.08642 174.226 0.271606 171.245 0.271606H163.388C163.388 0.271606 163.117 0.271606 163.117 0.543211H163.388C164.471 0.814816 165.284 0.814816 165.555 1.35803C165.826 1.62963 166.097 2.71605 166.097 4.34568V13.8519C166.097 15.4815 165.826 16.2963 165.555 16.8395C165.284 17.1111 164.471 17.3827 163.388 17.3827L163.117 17.6543L163.388 17.9259H171.245C174.497 17.9259 176.936 17.1111 178.561 15.4815C179.916 13.8519 181 11.679 181 8.96296C180.729 6.51852 179.916 4.34568 178.29 2.71605ZM176.665 14.6667C175.581 16.2963 173.684 17.1111 171.245 17.1111H170.974C169.62 17.1111 169.078 16.8395 168.536 16.2963C168.265 16.0247 167.994 14.9383 167.994 13.3086V1.08642H171.245C173.684 1.08642 175.581 1.90124 176.665 3.53087C177.748 5.1605 178.29 6.79012 178.29 8.96296C178.29 11.1358 177.748 13.037 176.665 14.6667Z" fill="#FEFEFE"/>
<path d="M162.033 14.1235C162.033 14.1235 162.033 14.1235 162.033 14.3951L161.762 14.6667C161.491 15.4815 161.22 16.2963 160.949 16.5679C160.407 16.8395 159.594 17.1111 158.24 17.1111H154.717C153.362 17.1111 152.549 16.8395 152.279 16.2963C152.008 16.0247 151.737 14.9383 151.737 13.3086V4.34568C151.737 2.71605 152.008 1.62963 152.279 1.35803C152.549 0.814816 153.362 0.543211 154.446 0.543211H154.717C154.717 0.271606 154.446 0.271606 154.446 0.271606H147.13C146.859 0.271606 146.859 0.271606 146.859 0.543211C146.859 0.543211 146.859 0.543211 147.13 0.543211C148.214 0.543211 148.756 0.814816 149.298 1.35803C149.569 1.62963 149.569 2.71605 149.569 4.34568V13.8519C149.569 15.4815 149.569 16.2963 149.027 16.8395C148.756 17.1111 148.214 17.3827 147.13 17.3827C146.859 17.3827 146.859 17.6543 146.859 17.6543C146.859 17.6543 146.859 17.9259 147.13 17.9259H162.033V17.6543L162.304 14.3951C162.304 14.1235 162.304 14.1235 162.033 14.1235Z" fill="#FEFEFE"/>
<path d="M144.963 0.271606H137.647C137.647 0.271606 137.647 0.271606 137.647 0.543211C138.731 0.814816 139.543 0.814816 139.814 1.35803C140.085 1.62963 140.356 2.71605 140.356 4.34568V13.8519C140.356 15.4815 140.085 16.2963 139.814 16.8395C139.543 17.1111 138.731 17.3827 137.647 17.3827V17.6543V17.9259H144.963C145.234 17.9259 145.234 17.6543 145.234 17.6543C145.234 17.6543 145.234 17.3827 144.963 17.3827C143.879 17.3827 143.337 17.1111 143.066 16.8395C142.524 16.2963 142.524 15.4815 142.524 13.8519V4.34568C142.524 2.71605 142.524 1.62963 143.066 1.35803C143.337 0.814816 143.879 0.543211 144.963 0.543211C145.234 0.543211 145.234 0.543211 145.234 0.543211C145.234 0.271606 145.234 0.271606 144.963 0.271606Z" fill="#FEFEFE"/>
<path d="M136.021 0.271606H128.705C128.434 0.271606 128.434 0.271606 128.434 0.543211C128.434 0.543211 128.434 0.543211 128.705 0.543211C128.705 0.543211 129.247 0.543211 129.518 0.543211H129.247C130.331 0.543211 130.873 0.814816 131.144 1.35803C131.415 1.62963 131.415 2.17284 131.144 2.98766L128.163 13.037H127.892L123.828 0.271606H123.557L119.763 13.037H119.492L116.241 2.98766C115.97 2.17284 115.97 1.62963 116.241 1.35803C116.512 1.08642 117.054 0.814816 117.867 0.543211C118.138 0.543211 118.138 0.543211 118.409 0.543211V0.271606H111.093C110.822 0.271606 110.822 0.271606 110.822 0.543211C111.093 0.543211 111.364 0.543211 111.635 0.543211C112.989 0.814816 113.531 1.62963 114.073 3.25926L118.68 17.9259H118.951L123.015 5.1605H123.286L127.079 17.9259H127.35L131.957 3.25926C132.769 1.35803 133.04 0.543211 135.479 0.543211H135.208C135.479 0.543211 135.75 0.543211 136.021 0.543211C136.021 0.271606 136.021 0.271606 136.021 0.271606Z" fill="#FEFEFE"/>
<path d="M108.925 10.3211C109.467 10.0494 109.738 10.0494 110.009 9.77784C110.009 9.50624 110.28 9.23463 110.551 8.69142C111.093 8.69142 111.364 8.41982 111.635 8.41982C111.635 8.69142 111.906 8.96303 111.906 8.96303C112.99 8.96303 112.448 7.60501 111.635 8.41982C111.364 8.41982 111.093 8.41982 110.822 8.69142C111.093 8.14822 111.093 7.87661 111.364 7.60501C111.364 7.3334 111.635 7.0618 111.635 6.79019C111.364 6.24698 110.551 6.79019 111.093 7.3334C111.093 7.87661 110.822 8.14822 110.551 8.69142C110.28 8.96303 110.28 9.23463 110.009 9.50624C110.009 9.23463 110.009 8.96303 110.009 8.96303C110.009 8.96303 110.009 8.14822 110.009 7.87661C110.28 7.60501 110.551 7.3334 110.28 7.0618C110.009 6.51859 109.196 7.0618 109.738 7.87661C110.009 8.14822 109.738 8.41982 109.738 8.96303C109.738 8.96303 109.738 9.23463 109.738 9.50624C109.467 9.77784 109.196 9.77784 108.925 10.0494C109.196 8.96303 109.196 7.87661 108.925 7.0618C107.841 7.87661 107.57 10.5927 108.112 11.9507C108.654 11.4075 108.925 10.8643 108.925 10.3211Z" fill="#FEFEFE"/>
<path d="M115.428 11.9506C115.428 11.679 114.886 11.9506 114.886 11.9506C114.344 11.9506 114.073 11.9506 113.531 11.9506C113.802 11.9506 114.073 11.4074 114.073 11.4074C115.157 11.1358 114.073 10.0494 113.802 10.8642C113.802 10.8642 113.802 11.1358 114.073 11.1358C113.802 11.4074 113.531 11.9506 113.26 12.2222C112.989 12.2222 112.448 12.4938 112.177 12.4938C111.906 12.4938 111.635 12.7654 111.364 13.037C110.822 13.037 110.009 13.037 109.467 13.037C110.28 14.1234 112.989 14.9383 114.344 14.3951C113.531 13.5802 112.719 13.3086 111.635 13.037C111.906 12.7654 112.177 12.7654 112.448 12.4938C112.448 12.7654 112.719 12.7654 112.989 12.7654C113.26 13.037 113.531 13.037 113.802 13.3086H114.073C114.344 13.8518 115.157 13.5802 114.615 13.037C114.615 12.7654 114.073 13.037 114.073 13.037C113.802 12.7654 112.989 12.7654 112.989 12.7654C112.719 12.4938 112.719 12.4938 112.448 12.4938C112.719 12.4938 112.989 12.2222 113.26 12.2222H113.531C114.073 12.2222 114.344 11.9506 114.886 12.2222C115.157 13.037 115.97 12.4938 115.428 11.9506Z" fill="#FEFEFE"/>
<path d="M104.048 17.111C102.964 16.2962 101.067 15.2098 99.4417 15.4814C99.9836 16.8394 102.693 17.3826 104.048 17.111Z" fill="#FEFEFE"/>
<path d="M105.945 22C106.216 20.3704 105.403 18.7408 104.319 17.6544C104.048 19.0124 104.861 21.1852 105.945 22Z" fill="#FEFEFE"/>
<path d="M103.506 18.4692C103.235 19.284 102.964 20.3704 103.235 21.1852C103.777 20.642 104.048 19.284 103.777 18.4692H103.506Z" fill="#FEFEFE"/>
<path d="M106.487 13.5803C107.299 11.4074 107.841 8.41979 106.487 6.24695C105.132 7.87658 105.403 11.9507 106.487 13.5803Z" fill="#FEFEFE"/>
<path d="M107.299 14.395C108.383 16.2962 112.448 17.3826 114.344 16.8394C112.718 15.2098 109.738 13.8518 107.299 14.395Z" fill="#FEFEFE"/>
<path d="M102.151 20.0988H101.338C100.525 20.0988 99.7126 20.0988 99.1707 19.8272C98.3578 19.5556 97.8159 19.0124 97.5449 18.4692C97.003 18.1976 96.732 17.6544 96.4611 16.8396C96.4611 16.2964 96.1901 15.7531 96.1901 14.9383C96.1901 14.3951 96.1901 13.8519 96.4611 13.3087C96.4611 12.7655 96.732 12.4939 97.003 11.9507L97.274 11.4075V11.1359L96.732 11.6791C95.9192 11.9507 95.3773 12.7655 94.8353 13.5803C94.2934 14.3951 94.0225 15.2099 94.0225 16.2964C94.0225 16.8396 94.2934 17.6544 94.2934 18.1976C94.5644 18.7408 94.8353 19.284 95.3773 19.8272C95.6482 20.3704 96.1901 20.642 96.732 20.9136C97.274 21.1852 98.0868 21.4569 98.8997 21.4569C99.1707 21.4569 99.7126 21.1852 100.254 21.1852C100.525 20.9136 101.067 20.9136 101.609 20.642L102.151 20.0988Z" fill="#FEFEFE"/>
<path d="M103.235 0.814816C103.777 1.08642 104.048 1.35803 104.319 1.90124C104.59 2.44445 104.861 2.98766 104.861 3.53087C104.861 4.61729 104.319 5.70371 103.777 6.51852L103.235 7.33334L104.048 7.06173C104.59 6.51852 105.403 6.24692 105.945 5.4321C106.486 4.88889 106.757 4.07408 106.757 3.25926C106.757 2.44445 106.486 1.90124 105.945 1.35803C105.403 0.543211 104.319 0.271606 103.235 0.271606C103.235 0.271606 103.235 0.271606 102.964 0.271606C102.964 0.271606 102.693 0.271606 102.422 0.271606L103.235 0.814816Z" fill="#FEFEFE"/>
<path d="M113.531 19.284L112.718 19.5556C112.448 19.5556 112.448 19.5556 112.177 19.5556H111.906C111.635 19.5556 111.364 19.5556 111.093 19.5556C110.822 19.284 110.551 19.284 110.28 19.0124C110.009 18.7408 109.738 18.4691 109.196 18.1975C108.925 17.6543 108.383 17.1111 107.841 16.5679C107.57 16.2963 107.299 16.0247 107.028 15.4815C106.757 15.2099 106.486 14.9383 106.486 14.6667C106.486 14.3951 106.757 14.3951 106.757 14.3951C107.028 14.1235 107.299 13.8519 107.57 13.5803C108.112 13.037 108.654 12.4938 109.196 12.2222H109.467C109.738 12.2222 110.822 11.9506 111.906 11.1358C113.26 10.321 114.344 9.23458 114.344 9.23458C114.344 9.23458 112.718 9.50618 111.364 10.321C110.28 10.8642 109.467 11.679 109.196 11.9506C108.654 12.4938 107.841 12.7654 107.299 13.3087C107.028 13.5803 106.757 13.8519 106.486 14.1235C106.486 14.1235 106.486 14.3951 106.215 14.3951C106.215 14.3951 105.945 14.1235 105.674 13.8519C105.403 13.3087 104.861 12.7654 104.319 12.2222C103.777 11.4074 103.235 10.8642 102.964 10.0494C102.422 9.50618 101.88 8.96297 101.338 8.14816C101.067 7.60495 100.796 7.06174 100.525 6.79014C99.9834 5.97532 99.4415 5.43211 99.1706 4.6173C98.8996 4.07409 98.8996 3.53088 98.8996 2.98767C98.8996 2.44446 98.8996 2.17285 99.1706 1.90125C99.1706 1.35804 99.7125 1.08643 99.9834 0.814826L100.525 0.271616C99.7125 1.11461e-05 98.6286 0.814826 98.6286 0.814826C98.3577 1.08643 98.0867 1.35804 97.8158 1.62964C97.5448 1.90125 97.2738 2.44446 97.0029 2.98767C96.7319 3.25927 96.7319 3.80248 96.7319 4.34569C96.7319 4.8889 97.0029 5.43211 97.2738 5.97532C97.2738 6.79014 97.8158 7.33334 98.0867 7.87655C98.6286 8.41976 99.1706 9.23458 99.7125 10.321C100.525 11.1358 101.067 12.2222 101.88 13.3087C102.693 14.3951 103.506 15.4815 104.59 16.5679C104.59 16.5679 104.59 16.5679 104.59 16.8395C104.048 17.3827 103.506 17.6543 102.964 18.1975C102.693 18.1975 102.422 18.1975 102.422 18.1975C101.338 18.1975 100.525 18.4691 99.9834 19.0124L99.7125 19.284H99.9834C100.254 19.284 100.525 19.284 100.796 19.284C101.609 19.284 102.422 19.0124 102.964 18.4691V18.1975C103.506 17.9259 104.048 17.3827 104.59 16.8395C104.59 16.8395 104.59 16.8395 104.861 16.8395C105.403 17.6543 106.215 18.4691 106.757 19.284C107.299 19.8272 107.841 20.3704 108.383 20.642C108.925 20.9136 109.467 21.1852 110.009 21.1852C110.822 21.1852 111.364 20.9136 111.906 20.642C112.177 20.3704 112.448 20.0988 112.989 19.8272L113.531 19.284Z" fill="#FEFEFE"/>
</svg>
