<svg width="187" height="39" viewBox="0 0 187 39" fill="none" xmlns="http://www.w3.org/2000/svg">
<path d="M25.9426 13V0H12.9399V13H0V26.0631H12.9399V39H25.9426V26.0631H38.8824V13H25.9426Z" fill="white"/>
<path d="M51.8223 20.1942H54.9002C56.0937 20.1942 56.9731 20.699 56.9731 22.0243C56.9731 23.3495 55.9681 23.7912 54.8374 23.7912H51.8223V20.1942ZM48.9956 26.0631H55.2771C57.6012 26.0631 59.8626 24.9272 59.8626 22.2767C59.8626 20.6359 59.046 19.4369 57.4756 18.9951C58.6063 18.4272 59.2344 17.5437 59.2344 16.2815C59.2344 13.8835 57.6013 13.0631 55.0887 13.0631H48.9956V26.0631ZM51.8223 15.2087H54.4605C55.4655 15.2087 56.4078 15.4611 56.4078 16.7233C56.4078 17.7961 55.654 18.301 54.6489 18.301H51.7595V15.2087H51.8223ZM60.9933 16.5971H63.443V18.3641H63.5059C64.0084 17.165 65.2019 16.3446 66.4582 16.3446C66.6466 16.3446 66.835 16.4077 67.0235 16.4077V18.8689C66.7722 18.8058 66.3953 18.8058 66.0813 18.8058C64.1968 18.8058 63.5687 20.1942 63.5687 21.8349V26.1262H60.9933V16.5971ZM68.2798 16.5971H70.8552V26.0631H68.2798V16.5971ZM70.8552 15.1456H68.2798V13H70.8552V15.1456ZM76.3201 16.5971H78.2045V18.3641H76.3201V23.034C76.3201 23.9175 76.5714 24.1699 77.3879 24.1699C77.6392 24.1699 77.8905 24.1699 78.2045 24.1068V26.1262C77.7648 26.1893 77.2623 26.1893 76.697 26.1893C75.1266 26.1893 73.7447 25.8107 73.7447 23.9175V18.3641H72.1743V16.5971H73.7447V13.7573H76.3201V16.5971ZM80.0262 16.5971H82.6016V26.0631H80.0262V16.5971ZM82.6644 15.1456H80.089V13H82.6644V15.1456ZM86.182 22.9709C86.182 24.1068 87.1243 24.5485 88.1921 24.5485C88.9459 24.5485 89.8881 24.233 89.8881 23.3495C89.8881 22.5291 88.8203 22.2767 86.9986 21.898C85.4911 21.5825 83.9835 21.0145 83.9835 19.3738C83.9835 16.9757 86.0564 16.3446 88.0665 16.3446C90.0766 16.3446 92.0238 17.0388 92.2123 19.3738H89.7625C89.6997 18.3641 88.9459 18.1116 88.0037 18.1116C87.4383 18.1116 86.5589 18.2378 86.5589 18.9951C86.5589 19.9417 88.0037 20.0679 89.5112 20.3835C91.0188 20.699 92.4635 21.267 92.4635 23.034C92.4635 25.5582 90.3278 26.3155 88.1921 26.3155C85.9936 26.3155 83.8579 25.4951 83.7323 22.9709H86.182ZM93.5314 13H96.1068V17.9223H96.1696C96.7978 16.8495 97.9284 16.3446 98.9335 16.3446C101.697 16.3446 102.325 17.9223 102.325 20.2573V26.0631H99.7501V20.699C99.7501 19.1213 99.3104 18.3641 98.1169 18.3641C96.7349 18.3641 96.1068 19.1213 96.1068 21.0777V26.0631H93.5314V13ZM107.979 15.2087H111.12C112.376 15.2087 113.067 15.7767 113.067 17.0388C113.067 18.3641 112.376 18.932 111.12 18.932H107.979V15.2087ZM105.152 26.0631H107.979V20.9514H110.868C112.313 20.9514 112.816 21.5825 113.067 22.9077C113.192 23.9806 113.192 25.2427 113.507 26.0631H116.333C115.831 25.3058 115.831 23.7912 115.768 22.9709C115.705 21.6456 115.265 20.3204 113.883 19.9417V19.8786C115.265 19.3107 115.893 18.1747 115.893 16.5971C115.893 14.6408 114.449 13 112.125 13H105.152V26.0631ZM119.286 20.3204C119.348 19.5631 119.788 18.301 121.421 18.301C122.678 18.301 123.243 18.9951 123.494 20.3204H119.286ZM126.07 21.9611C126.258 19.0582 124.688 16.3446 121.484 16.3446C118.657 16.3446 116.71 18.4903 116.71 21.3301C116.71 24.233 118.532 26.3155 121.484 26.3155C123.62 26.3155 125.19 25.3689 125.881 23.0971H123.62C123.431 23.7281 122.615 24.3592 121.61 24.3592C120.165 24.3592 119.411 23.6019 119.348 21.9611H126.07ZM134.047 21.267C134.047 22.7815 133.544 24.2961 131.848 24.2961C130.215 24.2961 129.587 22.7184 129.587 21.267C129.587 19.6893 130.152 18.2378 131.848 18.2378C133.482 18.301 134.047 19.7524 134.047 21.267ZM134.047 26.0631H136.497V13H133.921V17.733H133.859C133.23 16.7864 132.163 16.3446 131.095 16.3446C128.331 16.3446 126.949 18.6796 126.949 21.267C126.949 23.8543 128.331 26.3155 131.158 26.3155C132.351 26.3155 133.419 25.8738 133.984 24.8641H134.047V26.0631ZM147.678 17.3543C147.489 16.0291 146.233 15.0825 144.851 15.0825C142.339 15.0825 141.334 17.2912 141.334 19.5631C141.334 21.7718 142.276 23.9175 144.851 23.9175C146.61 23.9175 147.615 22.7184 147.803 21.0145H150.567C150.253 24.2961 148.055 26.3786 144.851 26.3786C140.831 26.3786 138.507 23.3495 138.507 19.5631C138.507 15.7136 140.831 12.6844 144.851 12.6844C147.741 12.6844 150.128 14.3252 150.442 17.3543H147.678ZM151.761 16.5971H154.211V18.3641H154.273C154.776 17.165 156.032 16.3446 157.289 16.3446C157.477 16.3446 157.665 16.4077 157.854 16.4077V18.8689C157.603 18.8058 157.226 18.8058 156.912 18.8058C155.027 18.8058 154.399 20.1942 154.399 21.8349V26.1262H151.824V16.5971H151.761ZM160.743 21.3301C160.743 19.8155 161.246 18.301 163.005 18.301C164.764 18.301 165.266 19.8155 165.266 21.3301C165.266 22.8446 164.764 24.3592 163.005 24.3592C161.246 24.3592 160.743 22.7815 160.743 21.3301ZM158.105 21.3301C158.105 24.3592 159.99 26.3155 162.942 26.3155C165.894 26.3155 167.841 24.3592 167.841 21.3301C167.841 18.301 165.957 16.3446 162.942 16.3446C160.052 16.3446 158.105 18.301 158.105 21.3301ZM171.171 22.9709C171.171 24.1068 172.113 24.5485 173.181 24.5485C173.934 24.5485 174.877 24.233 174.877 23.3495C174.877 22.5291 173.809 22.2767 171.924 21.898C170.417 21.5825 168.972 21.0145 168.972 19.3738C168.972 16.9757 171.045 16.3446 173.055 16.3446C175.128 16.3446 177.012 17.0388 177.201 19.3738H174.751C174.688 18.3641 173.934 18.1116 172.992 18.1116C172.427 18.1116 171.548 18.2378 171.548 18.9951C171.548 19.9417 172.992 20.0679 174.5 20.3835C176.007 20.699 177.452 21.267 177.452 23.034C177.452 25.5582 175.316 26.3155 173.181 26.3155C170.982 26.3155 168.909 25.4951 168.784 22.9709H171.171ZM180.718 22.9709C180.718 24.1068 181.661 24.5485 182.666 24.5485C183.42 24.5485 184.362 24.233 184.362 23.3495C184.362 22.5291 183.294 22.2767 181.409 21.898C179.965 21.5825 178.457 21.0145 178.457 19.3738C178.457 16.9757 180.53 16.3446 182.54 16.3446C184.613 16.3446 186.497 17.0388 186.686 19.3738H184.236C184.173 18.3641 183.42 18.1116 182.477 18.1116C181.912 18.1116 181.095 18.2378 181.095 18.9951C181.095 19.9417 182.54 20.0679 183.985 20.3835C185.492 20.699 187 21.267 187 23.034C187 25.5582 184.864 26.3155 182.666 26.3155C180.53 26.3155 178.394 25.4951 178.269 22.9709H180.718Z" fill="white"/>
</svg>
