<svg width="73" height="77" viewBox="0 0 73 77" fill="none" xmlns="http://www.w3.org/2000/svg">
<path d="M73 36.3008C73 58.5459 53.8875 77 34.2791 77C34.2484 77 36.5311 71.0961 36.5012 71.0961C16.3411 71.0953 0 56.3474 0 36.3008C0 16.2525 16.3411 0 36.502 0C56.6573 0 73 16.2525 73 36.3008Z" fill="white"/>
<path d="M56.2264 48.2859C56.6434 48.1972 57.0343 48.0606 57.4016 47.8777V46.2632C56.9531 46.472 56.5228 46.6251 56.1097 46.7216C55.6975 46.8166 55.2584 46.866 54.7965 46.866C54.2006 46.866 53.7379 46.6988 53.4076 46.366C53.0789 46.0317 52.9008 45.5686 52.8787 44.9768H57.8344V43.962C57.8344 42.8765 57.5317 42.0241 56.9279 41.4095C56.3233 40.7934 55.4775 40.4849 54.3906 40.4849C53.2539 40.4849 52.3648 40.8342 51.7208 41.5367C51.0776 42.236 50.7536 43.2273 50.7536 44.509C50.7536 45.7554 51.1028 46.7177 51.7988 47.3974C52.494 48.0794 53.462 48.4185 54.6995 48.4185C55.301 48.4185 55.8102 48.3746 56.2264 48.2859ZM55.4634 42.393C55.7251 42.6716 55.8598 43.0703 55.8693 43.586H52.9276C52.9631 43.0711 53.1081 42.6724 53.3619 42.393C53.6118 42.1128 53.9625 41.9699 54.4047 41.9699C54.8501 41.9699 55.2017 42.112 55.4634 42.393ZM48.6963 48.2945C49.0415 48.2129 49.3836 48.0645 49.7234 47.8503V46.0647C49.3789 46.2931 49.0352 46.4602 48.6916 46.5678C48.3463 46.6753 47.975 46.7287 47.5715 46.7287C46.4805 46.7287 45.9359 45.9807 45.9359 44.4831C45.9359 42.9408 46.4805 42.1701 47.5715 42.1701C47.856 42.1701 48.1382 42.2132 48.4251 42.2972C48.7073 42.3812 49.0155 42.4903 49.3458 42.6229L49.9646 41.0061C49.2583 40.66 48.4606 40.4865 47.5715 40.4865C46.356 40.4865 45.4235 40.8303 44.7724 41.5163C44.1229 42.203 43.7981 43.1967 43.7981 44.4965C43.7981 47.1117 44.9939 48.4193 47.3862 48.4193C47.9136 48.4185 48.3487 48.3785 48.6963 48.2945ZM42.3478 40.6286H40.251V48.2827H42.3478V40.6286ZM41.3026 39.6781C41.6825 39.6781 41.9678 39.5878 42.1578 39.4081C42.3486 39.2276 42.4439 38.9756 42.4439 38.6507C42.4439 37.9717 42.0632 37.6311 41.3026 37.6311C40.5419 37.6311 40.1612 37.9717 40.1612 38.6507C40.1612 39.3359 40.5427 39.6781 41.3026 39.6781ZM36.5053 48.2827L39.4329 40.6286H37.2407L35.7628 44.9894C35.5791 45.5961 35.4743 46.1188 35.4522 46.5576H35.4112C35.3687 46.0639 35.2662 45.5411 35.1007 44.9894L33.6156 40.6278H31.4243L34.3518 48.2819H36.5053V48.2827ZM25.9452 46.1902C25.6851 45.8143 25.5543 45.2492 25.5543 44.4965C25.5543 43.7438 25.6835 43.1708 25.9421 42.776C26.2014 42.3812 26.564 42.185 27.0314 42.185C27.6045 42.185 28.0175 42.3616 28.2721 42.7187C28.5267 43.0727 28.6528 43.6613 28.6528 44.4831V44.7099C28.6308 45.4532 28.4944 45.9807 28.2437 46.2923C27.9939 46.6023 27.6021 46.7569 27.0653 46.7569C26.5805 46.7553 26.2061 46.567 25.9452 46.1902ZM28.5102 47.2891H28.5992L29.0052 48.2827H30.6124V37.6319H28.5102V40.0815C28.5102 40.5297 28.5622 41.0383 28.6662 41.6081H28.5992C28.09 40.8601 27.3522 40.4857 26.3858 40.4857C25.4628 40.4857 24.7408 40.835 24.2166 41.5375C23.6924 42.2368 23.4291 43.2147 23.4291 44.4682C23.4291 45.7052 23.6869 46.6729 24.2016 47.3715C24.7179 48.0692 25.4273 48.4185 26.3299 48.4185C27.3073 48.4185 28.0333 48.0426 28.5102 47.2891ZM20.2178 45.3653C20.2178 45.8268 20.0736 46.1965 19.7819 46.4751C19.4911 46.753 19.1033 46.8919 18.6169 46.8919C17.9382 46.8919 17.5985 46.5976 17.5985 46.0089C17.5985 45.5984 17.7475 45.2931 18.0454 45.0922C18.3434 44.8913 18.7966 44.7814 19.4067 44.7641L20.2171 44.7366V45.3653H20.2178ZM22.3012 48.2827V43.1841C22.3012 42.2705 22.0269 41.59 21.4767 41.1419C20.9281 40.6961 20.1367 40.4716 19.1048 40.4716C18.0281 40.4716 17.0483 40.7031 16.1615 41.1631L16.8576 42.5735C17.6868 42.2023 18.4088 42.0186 19.0229 42.0186C19.8198 42.0186 20.2186 42.4063 20.2186 43.1834V43.5177L18.8865 43.5593C17.7349 43.5993 16.8757 43.8136 16.3042 44.1982C15.7343 44.5844 15.449 45.1824 15.449 45.9964C15.449 46.7718 15.6618 47.3683 16.0843 47.7898C16.5092 48.2082 17.0893 48.4185 17.8287 48.4185C18.4285 48.4185 18.9149 48.333 19.2893 48.1611C19.6621 47.9908 20.0255 47.6846 20.3794 47.2412H20.4338L20.8398 48.2819H22.3012V48.2827Z" fill="#191A1B"/>
<path d="M61.5611 30.696C61.4295 30.4228 61.2222 30.1811 60.9424 29.9707C60.6633 29.7604 60.2243 29.5351 59.6228 29.2942C58.9497 29.0234 58.513 28.8209 58.3144 28.6851C58.1149 28.5469 58.014 28.386 58.014 28.1977C58.014 27.8649 58.3246 27.6993 58.9434 27.6993C59.2894 27.6993 59.6315 27.7511 59.9673 27.8563C60.3023 27.9614 60.6617 28.0964 61.0464 28.2605L61.6794 26.7551C60.8036 26.3516 59.9034 26.1523 58.9773 26.1523C58.0054 26.1523 57.255 26.3375 56.7268 26.7088C56.1963 27.0816 55.9299 27.6074 55.9299 28.2879C55.9299 28.6851 55.9938 29.0194 56.1215 29.2902C56.2468 29.5618 56.4478 29.802 56.7268 30.0123C57.0035 30.2227 57.437 30.4495 58.0282 30.696C58.4397 30.8702 58.7707 31.0225 59.0182 31.1512C59.265 31.2815 59.44 31.3976 59.5409 31.5005C59.641 31.6033 59.6914 31.7367 59.6914 31.9007C59.6914 32.3395 59.3115 32.5585 58.5508 32.5585C58.1796 32.5585 57.75 32.4973 57.262 32.3732C56.7741 32.2508 56.3343 32.0985 55.9449 31.9149V33.6393C56.2893 33.7852 56.6575 33.8967 57.0516 33.972C57.4457 34.0474 57.9218 34.0859 58.4807 34.0859C59.5716 34.0859 60.3906 33.8786 60.9384 33.4697C61.4855 33.0577 61.7598 32.4612 61.7598 31.6763C61.7605 31.2972 61.6935 30.9707 61.5611 30.696ZM54.5221 28.959C54.5221 28.0501 54.2904 27.3563 53.8277 26.8736C53.3658 26.3924 52.6871 26.1531 51.7924 26.1531C51.2706 26.1531 50.804 26.2465 50.3941 26.4348C49.9834 26.6263 49.6618 26.9058 49.4285 27.2747H49.311L49.0304 26.2951H47.4287V33.9477H49.5254V30.3482C49.5254 29.4441 49.6555 28.7965 49.9156 28.4072C50.1781 28.0164 50.6022 27.8217 51.1878 27.8217C51.6198 27.8217 51.9327 27.9599 52.1298 28.2353C52.3269 28.5108 52.4262 28.9253 52.4262 29.477V33.9469H54.5221V28.959ZM44.3971 33.9509C44.8117 33.8622 45.2043 33.7272 45.5708 33.5443V31.929C45.1223 32.1393 44.6919 32.2916 44.2781 32.3874C43.8666 32.4839 43.4284 32.5318 42.9657 32.5318C42.369 32.5318 41.9071 32.3646 41.5768 32.0318C41.2465 31.699 41.0707 31.236 41.0471 30.6418H46.0036V29.6293C46.0036 28.543 45.7017 27.6938 45.0971 27.0761C44.4917 26.4615 43.6459 26.1531 42.5605 26.1531C41.4231 26.1531 40.5339 26.5023 39.8876 27.2032C39.246 27.9041 38.9228 28.8939 38.9228 30.1771C38.9228 31.4235 39.2712 32.3842 39.968 33.0655C40.6648 33.7468 41.6312 34.0866 42.8687 34.0866C43.4701 34.0859 43.9794 34.0395 44.3971 33.9509ZM43.6325 28.058C43.8942 28.3382 44.029 28.7369 44.0385 29.2518H41.0968C41.133 28.7369 41.2773 28.3382 41.5311 28.058C41.7817 27.7778 42.1317 27.6365 42.5747 27.6365C43.0185 27.6365 43.3716 27.7778 43.6325 28.058ZM38.1542 32.3536H34.5646L38.0297 27.6506V26.2951H32.2968V27.8908H35.6445L32.0832 32.7155V33.9469H38.1535V32.3536H38.1542ZM30.8882 26.2951H28.7915V33.9477H30.8882V26.2951ZM29.8422 25.3446C30.2229 25.3446 30.5083 25.2544 30.699 25.0731C30.8882 24.8933 30.9836 24.6406 30.9836 24.3172C30.9836 23.6383 30.6037 23.2969 29.8422 23.2969C29.0823 23.2969 28.7016 23.6383 28.7016 24.3172C28.7016 25.0016 29.0831 25.3446 29.8422 25.3446ZM25.536 32.2092C25.3666 32.0664 25.2854 31.8489 25.2854 31.553V27.8633H27.4365V26.2951H25.2854V24.6673H23.9454L23.3392 26.2818L22.1852 26.9811V27.8633H23.1886V31.553C23.1886 32.3968 23.3802 33.031 23.7625 33.4525C24.1456 33.8739 24.7557 34.0859 25.5944 34.0859C26.355 34.0859 26.9951 33.9697 27.5185 33.7366V32.1825C27.0053 32.3418 26.5663 32.4219 26.199 32.4219C25.9254 32.4211 25.7031 32.3513 25.536 32.2092ZM21.0431 26.2951H18.9479V33.9477H21.0431V26.2951ZM19.9986 25.3446C20.3778 25.3446 20.6647 25.2544 20.8554 25.0731C21.0446 24.8933 21.1384 24.6406 21.1384 24.3172C21.1384 23.6383 20.7585 23.2969 19.9986 23.2969C19.238 23.2969 18.8573 23.6383 18.8573 24.3172C18.8573 25.0016 19.238 25.3446 19.9986 25.3446ZM16.42 33.9618C16.7668 33.8794 17.1097 33.7319 17.4487 33.5176V31.7304C17.1034 31.9596 16.7605 32.1276 16.4169 32.2343C16.0724 32.3426 15.6996 32.396 15.2968 32.396C14.2043 32.396 13.6612 31.648 13.6612 30.1505C13.6612 28.6082 14.2043 27.8374 15.2968 27.8374C15.5805 27.8374 15.8651 27.879 16.1496 27.963C16.4334 28.047 16.7408 28.1569 17.0711 28.2895L17.6883 26.6734C16.9828 26.3265 16.1859 26.1538 15.2968 26.1538C14.0813 26.1538 13.148 26.4961 12.4977 27.1836C11.8474 27.8704 11.5234 28.864 11.5234 30.1638C11.5234 32.779 12.7192 34.0866 15.1115 34.0866C15.6381 34.0859 16.0748 34.0443 16.42 33.9618Z" fill="#191A1B"/>
</svg>
