<svg width="116" height="116" viewBox="0 0 116 116" fill="none" xmlns="http://www.w3.org/2000/svg">
<path fill-rule="evenodd" clip-rule="evenodd" d="M40.3221 62.9859C40.3221 72.6555 32.3898 79.8326 22.7195 79.8326C12.974 79.8326 5.11694 71.9761 5.11694 62.2306V36.4695H40.3215V62.9859H40.3221ZM6.93076 49.4635C6.93076 43.3444 11.9166 38.3579 18.1115 38.3579C24.2306 38.3579 29.2923 43.3438 29.2923 49.4635C29.2923 55.6584 24.2306 60.6443 18.1115 60.6443C16.6423 60.6476 15.1869 60.3607 13.8289 59.8C12.4709 59.2393 11.237 58.4158 10.1981 57.3769C9.15921 56.338 8.33577 55.1042 7.77506 53.7461C7.21435 52.3881 6.92743 50.9327 6.93076 49.4635ZM48.5565 57.4716C48.9344 57.7737 49.5386 57.9248 50.2186 57.9248C50.8273 57.927 51.426 57.7708 51.956 57.4716H54.4493C53.6182 58.9069 51.956 59.8138 50.1428 59.8138C48.4054 59.8138 46.8191 58.9069 46.0632 57.4716H48.5565ZM55.8087 57.4716H57.6219V59.738H55.8087V57.4716ZM62.0036 57.4716H63.8174V59.738H62.0036V57.4716ZM64.5721 57.4716H66.3859V59.738H64.5721V57.4716ZM73.3355 57.4716L72.5044 59.738H70.4649L69.5574 57.4716H73.3355ZM77.5661 57.4716C78.0199 57.8489 78.6241 58.151 79.153 58.151C79.682 58.151 80.4379 57.9248 81.0421 57.4716H82.1L83.0063 58C82.1753 59.0579 80.74 59.889 79.4557 59.889C77.7184 59.889 76.2837 58.9069 75.603 57.4716H77.5661ZM84.29 57.4716H85.9521V59.5869H84.29V57.4716ZM90.1822 57.4716C90.4843 57.9248 91.0132 58.3027 91.7691 58.3027C92.2217 58.3027 92.8271 58 92.9023 57.4716H94.8666C94.7913 58.8311 93.5817 59.8138 91.9202 59.8138C90.1075 59.8138 89.0496 58.7558 88.5212 57.6227L88.8985 57.4722H90.1822V57.4716ZM95.4708 57.4716H97.2094V59.738H95.4708V57.4716ZM101.062 57.4716C101.364 57.8489 101.817 58.151 102.497 58.0758V59.738C100.457 59.738 99.3241 58.7558 99.022 57.4716H101.062ZM108.087 57.4716L107.407 59.0579C106.198 61.7022 105.065 62.9106 102.647 62.9859V61.3237C104.082 61.2485 104.838 60.4926 105.443 59.0573L104.688 57.471H108.087V57.4716Z" fill="#FEFEFE"/>
<path fill-rule="evenodd" clip-rule="evenodd" d="M47.5744 51.881V55.5068C47.5744 56.1868 47.8765 56.9427 48.5565 57.4717H46.0633C45.837 56.8669 45.6101 56.1868 45.6101 55.5068V51.881H47.5744ZM54.9025 51.881V55.5068C54.9025 56.1868 54.7514 56.8669 54.4493 57.4717H51.9561C52.6361 57.0179 53.1651 56.3385 53.1651 55.5068V51.881H54.9025ZM62.6079 51.881C63.3637 52.6362 63.8175 53.5431 63.8175 54.5253V57.4717H62.0037V54.8274C62.0037 53.241 60.8705 52.6362 59.7373 52.6362C59.2083 52.6362 57.8483 53.0894 57.622 53.6936V57.4717H55.8088V51.881H62.6079ZM64.5721 51.881H66.386V57.4717H64.5721V51.881ZM69.3323 51.881C71.145 56.4889 70.9945 56.6406 71.4471 57.0179C71.7492 56.7158 72.3546 55.2805 73.4878 51.881H75.3756L73.3361 57.4717H69.5586L67.4439 51.881H69.3323ZM82.1747 51.881C83.1574 52.8631 83.61 54.4495 83.61 55.9606H76.8867C76.8867 56.5648 77.1888 57.0179 77.5661 57.4717H75.6019C75.2998 56.7916 75.0729 56.1116 75.0729 55.3564C75.0729 53.9211 75.6019 52.7121 76.433 51.881H82.1747ZM85.9522 51.881V52.1831C86.0274 52.1079 86.1026 51.9562 86.1026 51.881H88.3702V52.4852C87.0101 52.4852 85.9522 53.9205 85.9522 55.1295V57.4717H84.29V51.881H85.9522ZM93.8839 51.881C94.1107 52.1831 94.3376 52.41 94.4893 52.7121L93.2044 53.4673C92.7507 52.7873 92.2981 52.3341 91.5423 52.3341C91.0885 52.3341 90.636 52.7873 90.636 53.241C90.636 54.6763 94.866 54.4495 94.866 57.3206V57.4717H92.9017C92.9017 57.3959 92.977 57.3206 92.977 57.3206C92.977 55.6585 88.8974 56.2633 88.8974 53.241C88.8974 52.7121 88.9738 52.2589 89.2007 51.881H93.8839ZM95.4708 51.881H97.2094V57.4717H95.4708V51.881ZM104.159 51.881L106.425 56.7916L108.54 51.881H110.506L108.087 57.4717H104.689L102.497 52.6362H100.835V56.791C100.835 57.0173 100.91 57.2442 101.062 57.4711H99.0214C98.9462 57.169 98.9462 56.9421 98.9462 56.64V52.6362H98.0387V51.881H104.159ZM81.0415 57.4717L81.4953 57.0179L82.0995 57.4717H81.0415ZM88.898 57.4717L89.8807 56.9427C89.9559 57.0938 90.0312 57.2448 90.1828 57.4717H88.898ZM79.3794 52.4852C80.2104 52.4852 81.4188 53.3157 81.6457 54.3736H76.8867C77.1888 53.3163 78.1709 52.4852 79.3794 52.4852Z" fill="#FEFEFE"/>
<path fill-rule="evenodd" clip-rule="evenodd" d="M47.8012 46.3661H49.6903V47.8772H47.8012V46.3661ZM53.0134 46.3661H54.8266V47.8772H53.0134V46.3661ZM59.511 46.3661H61.1732V47.8772H59.511V46.3661ZM65.4796 46.3661H69.6344C68.8034 47.3482 67.4433 48.1793 66.0838 48.1793C64.7244 48.1793 63.4389 47.424 62.6837 46.3661H65.4796ZM81.7209 46.3661C80.6642 47.3482 79.3041 48.0283 77.7178 48.0283C76.1315 48.0283 74.7714 47.3482 73.7134 46.3661H81.7209ZM91.6175 46.3661C90.7864 47.3482 89.6532 48.0283 88.2185 48.0283C87.3122 48.0283 86.4047 47.6509 85.9522 46.8951V49.6904H84.29V46.3667H91.6175V46.3661ZM96.8303 46.3661H100.91C100.079 47.3482 98.7187 48.1793 97.4345 48.1793C95.9992 48.1793 94.7908 47.424 94.0355 46.3661H96.8303ZM102.345 46.3661H104.159V47.8772H102.345V46.3661ZM108.616 46.3661H110.353V47.8772H108.616V46.3661ZM45.6101 49.0104H47.5744V51.881H45.6101V49.0104ZM53.1651 49.0104H54.9025V51.881H53.1651V49.0104ZM55.8088 51.881V50.9747H57.622V51.7299C58.0751 51.2009 59.0567 50.8236 60.0394 50.8236C61.0974 50.8236 62.0037 51.2768 62.6079 51.881H55.8088ZM64.5721 51.0499H66.3859V51.881H64.5721V51.0499ZM67.4433 51.881L67.1412 51.0499H69.029C69.1807 51.352 69.2559 51.6541 69.3323 51.881H67.4433ZM73.4872 51.881C73.5624 51.6547 73.6376 51.352 73.7128 51.0499H75.6783V51.2009L75.375 51.881H73.4872ZM76.4329 51.881C77.1888 51.1257 78.1715 50.7478 79.2283 50.7478C80.5131 50.823 81.4959 51.2009 82.1747 51.881H76.4329ZM84.29 50.9747H85.9522V51.881H84.29V50.9747ZM86.1026 51.881C86.5564 51.352 87.1606 50.8236 88.3702 50.8236V51.881H86.1026ZM89.2013 51.881C89.7291 51.1257 90.7118 50.8236 91.6945 50.8236C92.6008 50.8236 93.3567 51.2768 93.8845 51.881H89.2013ZM95.4708 51.0499H97.2094V51.881H95.4708V51.0499ZM98.0387 51.881V50.9747H98.9462V49.0104H100.684V50.9747H103.78L104.159 51.881H98.0387ZM108.539 51.881L108.993 50.9747H110.882L110.505 51.881H108.539ZM95.4708 49.6898C95.4708 49.2367 95.8493 48.8587 96.3771 48.8587C96.8309 48.8587 97.2094 49.2367 97.2094 49.6898C97.2094 50.2188 96.8309 50.5967 96.3771 50.5967C95.8487 50.5967 95.4708 50.2188 95.4708 49.6898ZM64.6486 49.6898C64.6486 49.2367 65.0259 48.8587 65.4796 48.8587C65.9322 48.8587 66.3107 49.2367 66.3107 49.6898C66.3107 50.2188 65.9322 50.5967 65.4796 50.5967C65.0259 50.5967 64.6486 50.2188 64.6486 49.6898Z" fill="#FEFEFE"/>
<path fill-rule="evenodd" clip-rule="evenodd" d="M47.8013 46.366V37.9806H44.2507V36.4695H54.8273V39.9448C55.3563 39.4917 56.2626 39.0379 57.0937 39.0379C59.5111 39.0379 61.1733 40.927 61.1733 42.7396V46.3654H59.5111V42.6638C59.5111 42.0596 58.7552 40.6995 56.9426 40.6995C55.6584 40.6995 54.8273 41.8327 54.8273 41.8327V46.3654H53.0141V37.9806H49.6904V46.366H47.8013ZM62.6832 46.366C62.1554 45.5349 61.7769 44.6286 61.7769 43.5707C61.7769 40.7753 63.7411 38.9621 65.9317 39.0379C69.105 39.0379 70.3134 41.607 70.3134 44.2507H63.5901C63.5149 45.2328 64.5716 46.1391 65.4791 46.366H62.6832ZM66.2344 46.366C66.915 46.215 67.6709 45.8376 68.1234 45.2328L69.7104 46.2902C69.6351 46.2902 69.6351 46.2902 69.6351 46.3654H66.2344V46.366ZM73.7129 46.366C72.6562 45.3087 71.9755 43.7217 71.9755 42.0602C71.9755 38.8117 74.544 36.1674 77.7173 36.1674C80.8893 36.1674 83.459 38.8117 83.459 42.0602C83.459 43.7223 82.7784 45.3087 81.7204 46.366H73.7129ZM84.2901 46.366V39.2648H88.5201C90.9382 39.2648 92.5997 41.2291 92.5245 43.5713C92.5245 44.6286 92.146 45.5355 91.617 46.3666H84.2901V46.366ZM94.0356 46.366C93.4314 45.5349 93.1293 44.6286 93.1293 43.5707C93.1293 40.7753 95.0936 38.9621 97.2841 39.0379C100.456 39.0379 101.666 41.607 101.666 44.2507H94.8661C94.8661 45.2328 95.924 46.1391 96.8303 46.366H94.0356ZM97.5862 46.366C98.1904 46.215 98.9463 45.8376 99.4752 45.2328L100.986 46.2902L100.911 46.3654H97.5862V46.366ZM102.345 46.366V39.1138H104.159V39.9448C104.612 39.4159 105.594 39.0379 106.576 39.0379C108.767 39.0379 110.353 40.927 110.353 42.6644V46.366H108.616V42.9665C108.616 41.3801 107.408 40.7753 106.273 40.7753C105.744 40.7753 104.384 41.3043 104.158 41.8327V46.3654H102.345V46.366ZM97.3593 40.7001C98.2656 40.7001 99.4752 41.5312 99.6257 42.5891H94.8667C95.1688 41.5312 96.2261 40.7001 97.3593 40.7001ZM73.7129 42.0602C73.7129 39.7938 75.5267 37.9053 77.7173 37.9053C79.9078 37.9053 81.7204 39.7938 81.7204 42.0602C81.7204 44.4023 79.9078 46.215 77.7173 46.215C75.5267 46.215 73.7129 44.4017 73.7129 42.0602ZM66.0839 40.7001C66.915 40.7001 68.1234 41.5312 68.3503 42.5891H63.5161C63.8928 41.5312 64.8743 40.7001 66.0839 40.7001ZM85.9523 40.927H88.2186C89.2766 40.927 90.8635 41.7575 90.8635 43.7975C90.8635 45.3087 89.6539 46.2908 88.2186 46.2908C87.538 46.2908 85.9523 45.3845 85.9523 43.5713V40.927Z" fill="#FEFEFE"/>
</svg>
