<svg width="70" height="56" viewBox="0 0 70 56" fill="none" xmlns="http://www.w3.org/2000/svg">
<path d="M14.7692 20.4186H14.693L11.8374 0.00891113H1.70972V34.4594H8.33452V8.79051H8.41067L12.18 34.4594H17.282L21.0514 8.79051H21.1275V34.4594H27.7523V0.00891113H17.6246L14.7692 20.4186Z" fill="#FEFEFE"/>
<path d="M30.5936 7.63239C30.5936 10.2379 31.812 13.0845 33.1826 15.4488C29.7178 17.8131 28.0806 21.4801 28.0806 25.4365C28.0806 31.9021 31.8881 35.1348 36.4189 35.1348C39.2743 35.1348 40.9877 33.9285 43.0055 32.4328L44.1859 34.4593H51.7247L48.0697 27.9937C50.2398 25.2917 51.1157 21.5284 51.2677 17.6684H45.3282C45.2521 19.1641 44.9856 20.5633 44.4143 21.7212L41.3304 16.4621C44.3002 14.0496 46.0516 10.9617 46.0516 7.63252C46.0516 3.81186 44.1016 0.981055 40.9059 0.00012207H35.7001C32.5434 0.981055 30.5936 3.81172 30.5936 7.63239ZM37.6374 28.38C36.1524 28.38 34.7056 26.6911 34.7056 24.4716C34.7056 23.4583 35.2767 22.0593 36.3809 20.9977L39.9979 27.2219C39.4269 27.8008 38.4368 28.38 37.6374 28.38ZM38.3227 4.64079C39.5029 4.64079 40.3405 5.65399 40.3405 7.05332C40.3405 8.06652 39.7695 9.36932 38.0942 11.2993C36.8378 9.27292 36.3047 8.06652 36.3047 7.05332C36.3047 5.65399 37.1425 4.64079 38.3227 4.64079Z" fill="#FEFEFE"/>
<path d="M51.3057 17.2341C51.3057 30.0687 53.057 35.1349 61.0146 35.1349C65.5453 35.1349 70.0001 32.8188 70.0001 23.1688V20.6116H63.1469C63.1469 27.1252 62.7661 29.0552 61.0148 29.0552C58.8445 29.0552 58.6161 26.5464 58.6161 17.2341C58.6161 7.92187 58.8445 5.4128 61.0148 5.4128C62.3854 5.4128 62.9564 6.5708 62.9564 10.4789V12.4091H69.8099V10.2379C69.8099 5.1256 68.3933 1.43813 64.8416 0H57.0076C52.7765 1.70413 51.3057 6.8396 51.3057 17.2341Z" fill="#FEFEFE"/>
<path d="M0.196512 41.5554C0.196512 48.5968 6.5735 46.6485 6.5735 50.5728C6.5735 51.6583 6.09311 52.4931 5.26316 52.4931C4.47695 52.4931 3.93102 51.8809 3.93102 50.1832V49.71H0V50.4058C0 54.525 1.87815 56 5.24143 56C7.90677 56 9.66422 54.9509 10.3894 52.6712L9.82739 55.6104H14.1516L14.5665 52.1313H17.7988L18.2135 55.6104H21.8525H22.5377H26.1767L26.5917 52.1313H29.8239L30.239 55.6104H34.5632L30.763 35.7385H25.6524L22.195 53.8187L18.7376 35.7385H13.6273L10.721 50.9366C10.7507 50.6009 10.7667 50.2485 10.7667 49.8771C10.7667 42.613 4.12753 44.5333 4.12753 40.609C4.12753 39.7184 4.52063 38.8556 5.39419 38.8556C6.18047 38.8556 6.55169 39.8297 6.55169 40.9987V41.4718H10.3517C10.3517 38.315 9.5224 36.4747 7.65239 35.7334H3.1178C1.16142 36.5246 0.196512 38.5209 0.196512 41.5554ZM28.1857 39.8019H28.2297L29.3432 48.2349H27.0721L28.1857 39.8019ZM16.1607 39.8019H16.2043L17.3182 48.2349H15.0469L16.1607 39.8019Z" fill="#FEFEFE"/>
<path d="M42.7524 39.894V35.7385H32.5754V40.1359H35.633V55.6104H39.6949V40.1359H42.7037C42.4252 41.5897 42.3057 43.4171 42.3057 45.6745C42.3057 53.0777 43.31 56.0001 47.8746 56.0001C50.4735 56.0001 53.0284 54.6641 53.0284 49.0977V47.6227H49.0976C49.0976 51.3799 48.8789 52.4931 47.8746 52.4931C46.6299 52.4931 46.4988 51.046 46.4988 45.6745C46.4988 40.3029 46.6299 38.8556 47.8746 38.8556C48.6607 38.8556 48.9885 39.5236 48.9885 41.7779V42.8912H52.9193V41.6388C52.9193 38.69 52.1067 36.5629 50.0695 35.7334H45.5762C44.1145 36.3255 43.2269 37.6353 42.7524 39.894Z" fill="#FEFEFE"/>
<path d="M60.2351 43.0304H57.7456V35.7384H53.6833V55.6103H57.7456V47.4278H60.2351V55.6103H64.2973V35.7384H60.2351V43.0304Z" fill="#FEFEFE"/>
<path d="M69.5714 35.7384H65.5093V55.6103H69.5714V35.7384Z" fill="#FEFEFE"/>
</svg>
